HIERARCHY
ROOT Hips
{
  OFFSET 0.000 66.072 0.000
  CHANNELS 6 Xposition Yposition Zposition Zrotation Xrotation Yrotation
  JOINT LeftUpLeg
  {
    OFFSET 7.833 0.924 3.041
    CHANNELS 6 Xposition Yposition Zposition Zrotation Xrotation Yrotation
    JOINT LeftLeg
    {
      OFFSET 0.000 -35.763 0.000
      CHANNELS 6 Xposition Yposition Zposition Zrotation Xrotation Yrotation
      JOINT LeftFoot
      {
        OFFSET 0.000 -31.232 0.000
        CHANNELS 6 Xposition Yposition Zposition Zrotation Xrotation Yrotation
        End Site
        {
          OFFSET 0.000 0.000 9.617
        }
      }
    }
  }
  JOINT RightUpLeg
  {
    OFFSET -7.833 0.924 3.041
    CHANNELS 6 Xposition Yposition Zposition Zrotation Xrotation Yrotation
    JOINT RightLeg
    {
      OFFSET 0.000 -35.763 0.000
      CHANNELS 6 Xposition Yposition Zposition Zrotation Xrotation Yrotation
      JOINT RightFoot
      {
        OFFSET 0.000 -31.232 0.000
        CHANNELS 6 Xposition Yposition Zposition Zrotation Xrotation Yrotation
        End Site
        {
          OFFSET 0.000 0.000 9.617
        }
      }
    }
  }
  JOINT Spine
  {
    OFFSET 0.000 31.096 0.000
    CHANNELS 6 Xposition Yposition Zposition Zrotation Xrotation Yrotation
    JOINT Spine1
    {
      OFFSET 0.000 22.833 0.000
      CHANNELS 6 Xposition Yposition Zposition Zrotation Xrotation Yrotation
      JOINT LeftShoulder
      {
        OFFSET 1.777 -0.397 0.052
        CHANNELS 6 Xposition Yposition Zposition Zrotation Xrotation Yrotation
        JOINT LeftArm
        {
          OFFSET 16.478 0.000 0.000
          CHANNELS 6 Xposition Yposition Zposition Zrotation Xrotation Yrotation
          JOINT LeftForeArm
          {
            OFFSET 21.053 0.000 0.000
            CHANNELS 6 Xposition Yposition Zposition Zrotation Xrotation Yrotation
            JOINT LeftHand
            {
              OFFSET 23.291 0.000 0.000
              CHANNELS 6 Xposition Yposition Zposition Zrotation Xrotation Yrotation
              JOINT LeftHandThumb1
              {
                OFFSET 4.877 -1.044 3.608
                CHANNELS 6 Xposition Yposition Zposition Zrotation Xrotation Yrotation
                JOINT LeftHandThumb2
                {
                  OFFSET 2.665 -0.000 -0.000
                  CHANNELS 6 Xposition Yposition Zposition Zrotation Xrotation Yrotation
                  JOINT LeftHandThumb3
                  {
                    OFFSET 2.543 0.000 -0.000
                    CHANNELS 6 Xposition Yposition Zposition Zrotation Xrotation Yrotation
                    End Site
                    {
                      OFFSET 2.667 -0.000 0.000
                    }
                  }
                }
              }
              JOINT LeftHandIndex1
              {
                OFFSET 9.232 -0.301 2.144
                CHANNELS 6 Xposition Yposition Zposition Zrotation Xrotation Yrotation
                JOINT LeftHandIndex2
                {
                  OFFSET 4.225 0.000 0.000
                  CHANNELS 6 Xposition Yposition Zposition Zrotation Xrotation Yrotation
                  JOINT LeftHandIndex3
                  {
                    OFFSET 2.654 0.000 -0.000
                    CHANNELS 6 Xposition Yposition Zposition Zrotation Xrotation Yrotation
                    End Site
                    {
                      OFFSET 1.958 0.000 -0.000
                    }
                  }
                }
              }
              JOINT LeftHandMiddle1
              {
                OFFSET 8.920 -0.000 0.000
                CHANNELS 6 Xposition Yposition Zposition Zrotation Xrotation Yrotation
                JOINT LeftHandMiddle2
                {
                  OFFSET 4.863 -0.000 0.000
                  CHANNELS 6 Xposition Yposition Zposition Zrotation Xrotation Yrotation
                  JOINT LeftHandMiddle3
                  {
                    OFFSET 2.765 -0.000 0.000
                    CHANNELS 6 Xposition Yposition Zposition Zrotation Xrotation Yrotation
                    End Site
                    {
                      OFFSET 2.006 0.000 0.000
                    }
                  }
                }
              }
              JOINT LeftHandRing1
              {
                OFFSET 8.689 -0.126 -2.087
                CHANNELS 6 Xposition Yposition Zposition Zrotation Xrotation Yrotation
                JOINT LeftHandRing2
                {
                  OFFSET 4.538 0.000 0.000
                  CHANNELS 6 Xposition Yposition Zposition Zrotation Xrotation Yrotation
                  JOINT LeftHandRing3
                  {
                    OFFSET 2.305 0.000 -0.000
                    CHANNELS 6 Xposition Yposition Zposition Zrotation Xrotation Yrotation
                    End Site
                    {
                      OFFSET 1.923 0.000 -0.000
                    }
                  }
                }
              }
              JOINT LeftHandPinky1
              {
                OFFSET 8.391 -0.817 -3.758
                CHANNELS 6 Xposition Yposition Zposition Zrotation Xrotation Yrotation
                JOINT LeftHandPinky2
                {
                  OFFSET 3.044 0.000 0.000
                  CHANNELS 6 Xposition Yposition Zposition Zrotation Xrotation Yrotation
                  JOINT LeftHandPinky3
                  {
                    OFFSET 1.975 0.000 0.000
                    CHANNELS 6 Xposition Yposition Zposition Zrotation Xrotation Yrotation
                    End Site
                    {
                      OFFSET 1.667 0.000 0.000
                    }
                  }
                }
              }
            }
          }
        }
      }
      JOINT RightShoulder
      {
        OFFSET -1.777 -0.397 0.052
        CHANNELS 6 Xposition Yposition Zposition Zrotation Xrotation Yrotation
        JOINT RightArm
        {
          OFFSET -16.478 0.000 0.000
          CHANNELS 6 Xposition Yposition Zposition Zrotation Xrotation Yrotation
          JOINT RightForeArm
          {
            OFFSET -21.053 0.000 0.000
            CHANNELS 6 Xposition Yposition Zposition Zrotation Xrotation Yrotation
            JOINT RightHand
            {
              OFFSET -23.291 0.000 0.000
              CHANNELS 6 Xposition Yposition Zposition Zrotation Xrotation Yrotation
              JOINT RightHandThumb1
              {
                OFFSET -4.877 -1.044 3.608
                CHANNELS 6 Xposition Yposition Zposition Zrotation Xrotation Yrotation
                JOINT RightHandThumb2
                {
                  OFFSET -2.665 -0.000 -0.000
                  CHANNELS 6 Xposition Yposition Zposition Zrotation Xrotation Yrotation
                  JOINT RightHandThumb3
                  {
                    OFFSET -2.543 0.000 0.000
                    CHANNELS 6 Xposition Yposition Zposition Zrotation Xrotation Yrotation
                    End Site
                    {
                      OFFSET -2.667 -0.000 -0.000
                    }
                  }
                }
              }
              JOINT RightHandIndex1
              {
                OFFSET -9.232 -0.301 2.144
                CHANNELS 6 Xposition Yposition Zposition Zrotation Xrotation Yrotation
                JOINT RightHandIndex2
                {
                  OFFSET -4.225 -0.000 0.000
                  CHANNELS 6 Xposition Yposition Zposition Zrotation Xrotation Yrotation
                  JOINT RightHandIndex3
                  {
                    OFFSET -2.654 0.000 0.000
                    CHANNELS 6 Xposition Yposition Zposition Zrotation Xrotation Yrotation
                    End Site
                    {
                      OFFSET -1.958 0.000 0.000
                    }
                  }
                }
              }
              JOINT RightHandMiddle1
              {
                OFFSET -8.920 -0.000 0.000
                CHANNELS 6 Xposition Yposition Zposition Zrotation Xrotation Yrotation
                JOINT RightHandMiddle2
                {
                  OFFSET -4.863 -0.000 -0.000
                  CHANNELS 6 Xposition Yposition Zposition Zrotation Xrotation Yrotation
                  JOINT RightHandMiddle3
                  {
                    OFFSET -2.765 -0.000 0.000
                    CHANNELS 6 Xposition Yposition Zposition Zrotation Xrotation Yrotation
                    End Site
                    {
                      OFFSET -2.006 0.000 0.000
                    }
                  }
                }
              }
              JOINT RightHandRing1
              {
                OFFSET -8.689 -0.126 -2.087
                CHANNELS 6 Xposition Yposition Zposition Zrotation Xrotation Yrotation
                JOINT RightHandRing2
                {
                  OFFSET -4.538 0.000 0.000
                  CHANNELS 6 Xposition Yposition Zposition Zrotation Xrotation Yrotation
                  JOINT RightHandRing3
                  {
                    OFFSET -2.305 -0.000 0.000
                    CHANNELS 6 Xposition Yposition Zposition Zrotation Xrotation Yrotation
                    End Site
                    {
                      OFFSET -1.923 0.000 0.000
                    }
                  }
                }
              }
              JOINT RightHandPinky1
              {
                OFFSET -8.391 -0.817 -3.758
                CHANNELS 6 Xposition Yposition Zposition Zrotation Xrotation Yrotation
                JOINT RightHandPinky2
                {
                  OFFSET -3.044 -0.000 0.000
                  CHANNELS 6 Xposition Yposition Zposition Zrotation Xrotation Yrotation
                  JOINT RightHandPinky3
                  {
                    OFFSET -1.975 0.000 0.000
                    CHANNELS 6 Xposition Yposition Zposition Zrotation Xrotation Yrotation
                    End Site
                    {
                      OFFSET -1.667 -0.000 -0.000
                    }
                  }
                }
              }
            }
          }
        }
      }
      JOINT Neck
      {
        OFFSET 0.000 0.747 0.000
        CHANNELS 6 Xposition Yposition Zposition Zrotation Xrotation Yrotation
        JOINT Head
        {
          OFFSET 0.000 6.750 0.000
          CHANNELS 6 Xposition Yposition Zposition Zrotation Xrotation Yrotation
          End Site
          {
            OFFSET 0.000 13.698 0.000
          }
        }
      }
    }
  }
}
MOTION
Frames:	4
Frame Time:	0.033333
-3.12010 76.82516 -236.18103 0.01659 -2.12991 15.03378 6.93687 0.43388 3.31119 -0.61262 4.79014 6.19885 0.00071 -35.26117 0.00297 7.76275 -1.80331 -1.90734 -0.00130 -32.53371 -0.00475 2.33472 29.77521 -4.68795 -8.64224 0.20385 3.31101 2.93576 10.03017 6.06451 -0.00365 -36.62886 -0.00142 -7.89456 -7.49896 -32.97638 0.00149 -31.10187 -0.00258 5.21347 36.88852 -8.63784 0.00063 31.02993 -0.00080 0.34824 1.52087 0.62000 0.00180 22.64886 0.00060 0.47574 2.19237 0.62718 1.64698 -0.29330 0.26348 -9.83199 1.57672 -9.03666 15.24052 -0.00397 -0.00137 -68.38941 3.21337 -6.03836 25.10021 -0.00635 -0.00407 -9.13190 9.63065 -14.40211 23.35288 -0.00504 -0.00030 -9.85088 19.61183 -4.84768 4.87701 -1.04401 3.60802 -41.57595 -8.45725 -7.72882 2.66500 -0.00001 -0.00001 0.00000 0.00000 5.00000 2.54300 0.00001 -0.00001 0.00000 0.00000 60.00000 9.23200 -0.30101 2.14400 -80.00000 -0.00000 0.00000 4.22499 0.00000 0.00006 -90.00000 -0.00000 -0.00000 2.65402 0.00000 -0.00002 -69.99999 0.00000 0.00000 8.92000 -0.00000 0.00001 -80.00000 -0.00000 0.00000 4.86300 -0.00001 0.00001 -90.00000 -0.00000 -0.00000 2.76500 -0.00000 0.00002 -69.99999 0.00000 0.00000 8.68900 -0.12600 -2.08699 -80.00000 -0.00000 0.00000 4.53800 0.00001 0.00000 -90.00000 -0.00000 -0.00000 2.30501 0.00000 -0.00002 -69.99999 0.00000 0.00000 8.39100 -0.81701 -3.75799 -80.00000 -0.00000 0.00000 3.04400 0.00000 0.00000 -90.00000 -0.00000 -0.00000 1.97501 0.00000 0.00000 -69.99999 0.00000 0.00000 -1.97185 -0.32308 0.26396 9.13618 1.23073 7.59719 -18.14780 0.00025 0.00065 58.07655 2.28716 52.12578 -19.81402 -0.00254 -0.00653 176.03474 6.51677 66.70901 -24.27754 0.03563 -0.04739 10.65285 39.42346 -17.60931 -4.87700 -1.04402 3.60800 24.66957 4.21176 9.07680 -2.66500 -0.00002 -0.00002 0.00000 0.00000 -9.99617 -2.54300 0.00002 0.00001 0.00001 0.00000 -15.00321 -9.23201 -0.30102 2.14401 19.99597 -0.00000 -0.00000 -4.22499 -0.00001 0.00000 24.99691 0.00000 0.00000 -2.65403 0.00000 0.00000 29.90226 2.49386 4.32900 -8.92000 -0.00001 0.00000 20.00428 -0.00000 0.00001 -4.86301 -0.00001 -0.00001 25.00288 -0.00000 0.00001 -2.76499 -0.00001 0.00001 29.90822 2.50103 4.32999 -8.68900 -0.12600 -2.08699 20.00428 -0.00000 0.00001 -4.53799 0.00000 0.00000 25.00288 -0.00000 0.00001 -2.30501 -0.00001 0.00001 29.90822 2.50103 4.32999 -8.39100 -0.81701 -3.75799 19.99597 -0.00000 -0.00000 -3.04399 -0.00001 0.00000 24.99691 0.00000 0.00000 -1.97500 0.00000 0.00000 29.90226 2.49386 4.32900 0.00001 0.73692 -0.00780 0.00003 -0.00004 0.00000 0.00275 6.67225 -0.00364 12.66999 9.33384 -16.89469 
-3.13009 76.83116 -236.17955 0.00056 -2.14370 14.96443 6.93688 0.44075 3.31430 -0.60997 4.79692 6.15256 0.00072 -35.23942 0.00289 7.82128 -1.78975 -1.83162 -0.00126 -32.54747 -0.00469 2.34729 30.01108 -4.68000 -8.63626 0.19690 3.31402 2.94178 10.03406 6.01796 -0.00360 -36.62764 -0.00134 -7.85394 -7.51186 -32.89330 0.00148 -31.08279 -0.00257 5.28445 37.04738 -8.72284 0.00047 31.02389 -0.00063 0.34021 1.53237 0.67666 0.00232 22.65407 0.00059 0.47153 2.19572 0.68489 1.64483 -0.29329 0.26718 -9.78797 1.59163 -9.15879 15.22319 -0.00341 -0.00124 -68.47373 3.23862 -6.06417 25.10319 -0.00628 -0.00406 -9.08861 9.60148 -14.38490 23.35233 -0.00509 0.00001 -9.83267 19.56120 -4.85967 4.87701 -1.04401 3.60802 -41.57595 -8.45725 -7.72882 2.66500 -0.00001 -0.00001 0.00000 0.00000 5.00000 2.54300 0.00001 -0.00001 0.00000 0.00000 60.00000 9.23200 -0.30101 2.14400 -80.00000 -0.00000 0.00000 4.22499 0.00000 0.00006 -90.00000 -0.00000 -0.00000 2.65402 0.00000 -0.00002 -69.99999 0.00000 0.00000 8.92000 -0.00000 0.00001 -80.00000 -0.00000 0.00000 4.86300 -0.00001 0.00001 -90.00000 -0.00000 -0.00000 2.76500 -0.00000 0.00002 -69.99999 0.00000 0.00000 8.68900 -0.12600 -2.08699 -80.00000 -0.00000 0.00000 4.53800 0.00001 0.00000 -90.00000 -0.00000 -0.00000 2.30501 0.00000 -0.00002 -69.99999 0.00000 0.00000 8.39100 -0.81701 -3.75799 -80.00000 -0.00000 0.00000 3.04400 0.00000 0.00000 -90.00000 -0.00000 -0.00000 1.97501 0.00000 0.00000 -69.99999 0.00000 0.00000 -1.97005 -0.32590 0.26765 9.22349 1.25865 7.69163 -18.14228 -0.00013 0.00051 57.74594 2.42897 51.44651 -19.76768 -0.00117 -0.00734 175.77393 6.45168 65.27390 -24.47044 0.04131 -0.05828 10.80188 39.67546 -18.67613 -4.87700 -1.04402 3.60800 24.66952 4.21171 9.07684 -2.66500 -0.00002 -0.00002 0.00000 0.00000 -9.99622 -2.54300 0.00002 0.00001 0.00001 0.00000 -15.00317 -9.23201 -0.30102 2.14401 19.99602 -0.00000 -0.00000 -4.22499 -0.00001 0.00000 24.99695 0.00000 0.00000 -2.65403 0.00000 0.00000 29.90231 2.49391 4.32903 -8.92000 -0.00001 0.00000 20.00422 -0.00000 0.00001 -4.86301 -0.00001 -0.00001 25.00283 -0.00000 0.00001 -2.76499 -0.00001 0.00001 29.90818 2.50097 4.33003 -8.68900 -0.12600 -2.08699 20.00422 -0.00000 0.00001 -4.53799 0.00000 0.00000 25.00283 -0.00000 0.00001 -2.30501 -0.00001 0.00001 29.90818 2.50097 4.33003 -8.39100 -0.81701 -3.75799 19.99602 -0.00000 -0.00000 -3.04399 -0.00001 0.00000 24.99695 0.00000 0.00000 -1.97500 0.00000 0.00000 29.90231 2.49391 4.32903 0.00001 0.73673 -0.00780 0.00003 -0.00004 0.00000 0.00261 6.67477 -0.00269 13.10070 9.45989 -17.78653 
-3.14155 76.83666 -236.17529 -0.01863 -2.15650 14.89329 6.93654 0.44766 3.31506 -0.59983 4.78677 6.11868 0.00072 -35.20655 0.00280 7.86061 -1.74325 -1.76788 -0.00122 -32.57482 -0.00464 2.35432 30.15565 -4.67402 -8.62971 0.18964 3.31451 2.94528 10.03800 5.97613 -0.00356 -36.63166 -0.00126 -7.83889 -7.53317 -32.81510 0.00148 -31.06573 -0.00256 5.31009 37.19832 -8.73496 0.00030 31.01829 -0.00046 0.33886 1.54472 0.73525 0.00288 22.65772 0.00057 0.46752 2.20049 0.74482 1.64271 -0.29379 0.27071 -9.72999 1.60253 -9.27253 15.20756 -0.00280 -0.00112 -68.59489 3.24895 -6.09404 25.10619 -0.00622 -0.00404 -8.99629 9.56401 -14.36103 23.34768 -0.00515 0.00031 -9.77877 19.51178 -5.17942 4.87701 -1.04401 3.60802 -41.57595 -8.45725 -7.72882 2.66500 -0.00001 -0.00001 0.00000 0.00000 5.00000 2.54300 0.00001 -0.00001 0.00000 0.00000 60.00000 9.23200 -0.30101 2.14400 -80.00000 -0.00000 0.00000 4.22499 0.00000 0.00006 -90.00000 -0.00000 -0.00000 2.65402 0.00000 -0.00002 -69.99999 0.00000 0.00000 8.92000 -0.00000 0.00001 -80.00000 -0.00000 0.00000 4.86300 -0.00001 0.00001 -90.00000 -0.00000 -0.00000 2.76500 -0.00000 0.00002 -69.99999 0.00000 0.00000 8.68900 -0.12600 -2.08699 -80.00000 -0.00000 0.00000 4.53800 0.00001 0.00000 -90.00000 -0.00000 -0.00000 2.30501 0.00000 -0.00002 -69.99999 0.00000 0.00000 8.39100 -0.81701 -3.75799 -80.00000 -0.00000 0.00000 3.04400 0.00000 0.00000 -90.00000 -0.00000 -0.00000 1.97501 0.00000 0.00000 -69.99999 0.00000 0.00000 -1.96808 -0.32894 0.27114 9.30810 1.28586 7.78210 -18.13237 -0.00048 0.00037 57.44893 2.53505 50.81212 -19.73276 -0.00024 -0.00856 175.89113 6.26894 64.13965 -24.40569 0.03418 -0.05547 12.19016 41.23040 -21.55165 -4.87700 -1.04402 3.60800 24.66947 4.21167 9.07688 -2.66500 -0.00002 -0.00002 0.00000 0.00000 -9.99627 -2.54300 0.00002 0.00001 0.00001 0.00000 -15.00313 -9.23201 -0.30102 2.14401 19.99608 -0.00000 -0.00000 -4.22499 -0.00001 0.00000 24.99699 0.00000 0.00000 -2.65403 0.00000 0.00000 29.90235 2.49396 4.32906 -8.92000 -0.00001 0.00000 20.00416 -0.00000 0.00001 -4.86301 -0.00001 -0.00001 25.00279 -0.00000 0.00001 -2.76499 -0.00001 0.00001 29.90814 2.50091 4.33006 -8.68900 -0.12600 -2.08699 20.00416 -0.00000 0.00001 -4.53799 0.00000 0.00000 25.00279 -0.00000 0.00001 -2.30501 -0.00001 0.00001 29.90814 2.50091 4.33006 -8.39100 -0.81701 -3.75799 19.99608 -0.00000 -0.00000 -3.04399 -0.00001 0.00000 24.99699 0.00000 0.00000 -1.97500 0.00000 0.00000 29.90235 2.49396 4.32906 0.00001 0.73652 -0.00780 0.00003 -0.00004 0.00000 0.00246 6.67633 -0.00170 13.55716 9.73570 -18.57759 
-3.15203 76.84392 -236.17165 -0.03753 -2.16517 14.82439 6.93600 0.45447 3.31549 -0.57724 4.76778 6.09269 0.00072 -35.19199 0.00272 7.86369 -1.70520 -1.73123 -0.00118 -32.59797 -0.00459 2.40827 30.18315 -4.77728 -8.62262 0.18281 3.31477 2.95105 10.03680 5.91910 -0.00352 -36.63749 -0.00118 -7.84786 -7.57716 -32.73775 0.00148 -31.13658 -0.00254 5.27506 36.91329 -8.73451 0.00012 31.01020 -0.00028 0.33750 1.56574 0.79172 0.00346 22.65599 0.00055 0.46501 2.21167 0.80334 1.64068 -0.29458 0.27467 -9.62348 1.60167 -9.36488 15.18629 -0.00215 -0.00098 -68.75622 3.26940 -6.13611 25.10913 -0.00615 -0.00402 -8.91806 9.52335 -14.36346 23.35200 -0.00521 0.00062 -9.91504 19.57389 -4.85599 4.87701 -1.04401 3.60802 -41.57595 -8.45725 -7.72882 2.66500 -0.00001 -0.00001 0.00000 0.00000 5.00000 2.54300 0.00001 -0.00001 0.00000 0.00000 60.00000 9.23200 -0.30101 2.14400 -80.00000 -0.00000 0.00000 4.22499 0.00000 0.00006 -90.00000 -0.00000 -0.00000 2.65402 0.00000 -0.00002 -69.99999 0.00000 0.00000 8.92000 -0.00000 0.00001 -80.00000 -0.00000 0.00000 4.86300 -0.00001 0.00001 -90.00000 -0.00000 -0.00000 2.76500 -0.00000 0.00002 -69.99999 0.00000 0.00000 8.68900 -0.12600 -2.08699 -80.00000 -0.00000 0.00000 4.53800 0.00001 0.00000 -90.00000 -0.00000 -0.00000 2.30501 0.00000 -0.00002 -69.99999 0.00000 0.00000 8.39100 -0.81701 -3.75799 -80.00000 -0.00000 0.00000 3.04400 0.00000 0.00000 -90.00000 -0.00000 -0.00000 1.97501 0.00000 0.00000 -69.99999 0.00000 0.00000 -1.96585 -0.33194 0.27518 9.38133 1.30883 7.85218 -18.12054 -0.00078 0.00022 57.31004 2.78215 49.92364 -19.69734 0.00024 -0.01324 174.73660 6.48223 63.08323 -22.90737 0.00517 -0.02139 9.93623 42.05252 -18.21427 -4.87700 -1.04402 3.60800 24.66942 4.21163 9.07691 -2.66500 -0.00002 -0.00002 0.00000 0.00000 -9.99632 -2.54300 0.00002 0.00001 0.00001 0.00000 -15.00308 -9.23201 -0.30102 2.14401 19.99613 -0.00000 -0.00000 -4.22499 -0.00001 0.00000 24.99704 0.00000 0.00000 -2.65403 0.00000 0.00000 29.90239 2.49401 4.32909 -8.92000 -0.00001 0.00000 20.00410 -0.00000 0.00001 -4.86301 -0.00001 -0.00001 25.00276 -0.00000 0.00001 -2.76499 -0.00001 0.00001 29.90811 2.50085 4.33010 -8.68900 -0.12600 -2.08699 20.00410 -0.00000 0.00001 -4.53799 0.00000 0.00000 25.00276 -0.00000 0.00001 -2.30501 -0.00001 0.00001 29.90811 2.50085 4.33010 -8.39100 -0.81701 -3.75799 19.99613 -0.00000 -0.00000 -3.04399 -0.00001 0.00000 24.99704 0.00000 0.00000 -1.97500 0.00000 0.00000 29.90239 2.49401 4.32909 0.00001 0.73628 -0.00780 0.00003 -0.00004 0.00000 0.00230 6.67460 -0.00066 13.95138 9.92535 -18.84028 
